<svg width="29" height="29" viewBox="0 0 29 29" fill="none" xmlns="http://www.w3.org/2000/svg">
<path fill-rule="evenodd" clip-rule="evenodd" d="M9.74496 6.11764H12.7658L17.1098 20.6709H14.4858L13.4054 16.5255H9.1717L8.06914 20.671H5.75384L9.74502 6.80124V6.11764H9.74496ZM12.81 14.3866L11.3105 8.23441L9.767 14.3865H12.81V14.3866ZM21.6081 9.85536H19.2267V20.671H21.6081V9.85547V9.85536ZM20.3867 5.65336C19.6152 5.65336 18.9897 6.27159 18.9897 7.03426C18.9897 7.79692 19.6152 8.41521 20.3867 8.41521C21.1582 8.41521 21.7836 7.79698 21.7836 7.03431C21.7836 6.27165 21.1582 5.65336 20.3867 5.65336ZM29 29H0V0H29V29Z" fill="#F6820C"/>
</svg>
