<svg width="29" height="29" viewBox="0 0 29 29" fill="none" xmlns="http://www.w3.org/2000/svg">
<path d="M0 25.2607C0 27.326 1.67418 29 3.7393 29H25.2606C27.326 29 29 27.3258 29 25.2607V3.73941C29 1.67396 27.3258 0 25.2607 0H3.73941C1.67396 0 0 1.67418 0 3.7393V25.2606V25.2607Z" fill="#563D7C"/>
<path d="M12.0256 12.8277V8.72096H15.6406C15.9849 8.72096 16.3168 8.74962 16.6365 8.80705C16.9562 8.86437 17.2391 8.96678 17.485 9.11438C17.7308 9.26199 17.9276 9.46691 18.0752 9.72916C18.2227 9.99152 18.2965 10.3276 18.2965 10.7374C18.2965 11.4752 18.0752 12.008 17.6325 12.3359C17.1899 12.6638 16.6243 12.8277 15.9357 12.8277H12.0256V12.8277ZM8.16467 5.7207V23.2793H16.6735C17.4604 23.2793 18.2269 23.181 18.9728 22.9842C19.7188 22.7874 20.3827 22.4842 20.9648 22.0743C21.5467 21.6645 22.0099 21.1357 22.3542 20.4882C22.6985 19.8405 22.8706 19.0741 22.8706 18.1888C22.8706 17.0903 22.6042 16.1518 22.0714 15.3731C21.5385 14.5943 20.7311 14.0491 19.649 13.7376C20.436 13.3606 21.0304 12.8769 21.4321 12.2867C21.8336 11.6965 22.0345 10.9588 22.0345 10.0734C22.0345 9.25372 21.8992 8.5652 21.6287 8.00774C21.3582 7.45039 20.977 7.00361 20.4851 6.66751C19.9934 6.3314 19.4032 6.08955 18.7146 5.94205C18.026 5.79445 17.2637 5.7207 16.4275 5.7207H8.16467V5.7207ZM12.0256 20.279V15.459H16.2308C17.0669 15.459 17.7391 15.6516 18.2474 16.037C18.7556 16.4223 19.0098 17.0657 19.0098 17.9674C19.0098 18.4266 18.9318 18.8036 18.7761 19.0987C18.6203 19.3938 18.4113 19.6274 18.1489 19.7995C17.8867 19.9717 17.5833 20.0946 17.2391 20.1685C16.8947 20.2421 16.5341 20.279 16.157 20.279H12.0256V20.279Z" fill="white"/>
</svg>
