<svg width="29" height="29" viewBox="0 0 29 29" fill="none" xmlns="http://www.w3.org/2000/svg">
<path d="M28.4014 11.0663C27.7484 10.4384 26.2518 10.2029 25.0818 10.5168C24.9459 8.94709 24.32 7.57372 23.2316 6.35717L22.6058 5.72927L22.1704 6.63187C21.6263 7.80918 21.3542 9.45742 21.4357 11.0272C21.4629 11.5764 21.599 12.5575 22.0071 13.4209C21.6263 13.7348 20.8372 14.1273 19.8033 14.1273H0.130809L0.0764341 14.4412C-0.114105 16.0108 -0.114105 20.9161 2.11708 24.6833C3.80407 27.548 6.30736 29 9.59966 29C16.7285 29 22.0071 24.2515 24.4832 15.6576C25.4628 15.6969 27.5579 15.6576 28.6191 12.7143C28.6463 12.6358 28.7007 12.4789 28.8911 11.8904L29 11.5764L28.4014 11.0663ZM15.8578 0H12.8649V3.92421H15.8578V0ZM15.8578 4.70909H12.8649V8.6333H15.8578V4.70893V4.70909ZM12.3206 4.70909H9.32767V8.6333H12.3206V4.70893V4.70909ZM8.78335 4.70909H5.79035V8.6333H8.78335V4.70893V4.70909ZM5.24614 9.41818H2.25314V13.3424H5.24603V9.41802L5.24614 9.41818ZM8.78335 9.41818H5.79035V13.3424H8.78335V9.41802V9.41818ZM12.3206 9.41818H9.32767V13.3424H12.3206V9.41802V9.41818ZM15.8579 9.41818H12.8648V13.3424H15.8579V9.41802V9.41818ZM19.3951 9.41818H16.402V13.3424H19.3951V9.41802V9.41818Z" fill="#2396ED"/>
</svg>
