<svg width="20" height="29" viewBox="0 0 20 29" fill="none" xmlns="http://www.w3.org/2000/svg">
<path d="M14.2734 19.3333C16.9011 19.3333 19.0312 17.1694 19.0312 14.5C19.0312 11.8306 16.9011 9.66666 14.2734 9.66666C11.6458 9.66666 9.51562 11.8306 9.51562 14.5C9.51562 17.1694 11.6458 19.3333 14.2734 19.3333Z" fill="#19BCFE"/>
<path fill-rule="evenodd" clip-rule="evenodd" d="M4.75781 29C6.01966 29 7.22983 28.4908 8.12209 27.5844C9.01436 26.6779 9.51562 25.4485 9.51562 24.1667V19.3333H4.75781C3.49596 19.3333 2.28579 19.8426 1.39353 20.749C0.501268 21.6554 0 22.8848 0 24.1667C0 25.4485 0.501268 26.6779 1.39353 27.5844C2.28579 28.4908 3.49596 29 4.75781 29V29Z" fill="#09CF83"/>
<path fill-rule="evenodd" clip-rule="evenodd" d="M4.75781 19.3333H9.51562V9.66666H4.75781C3.49596 9.66666 2.28579 10.1759 1.39353 11.0823C0.501268 11.9887 0 13.2181 0 14.5C0 15.7819 0.501268 17.0113 1.39353 17.9177C2.28579 18.8241 3.49596 19.3333 4.75781 19.3333V19.3333Z" fill="#A259FF"/>
<path fill-rule="evenodd" clip-rule="evenodd" d="M4.75781 9.66667H9.51562V0H4.75781C3.49596 0 2.28579 0.509225 1.39353 1.41565C0.501268 2.32208 0 3.55145 0 4.83333C0 6.11521 0.501268 7.34459 1.39353 8.25102C2.28579 9.15744 3.49596 9.66667 4.75781 9.66667V9.66667Z" fill="#F24E1E"/>
<path fill-rule="evenodd" clip-rule="evenodd" d="M14.2734 9.66667H9.51562V0H14.2734C15.5353 0 16.7455 0.509225 17.6377 1.41565C18.53 2.32208 19.0312 3.55145 19.0312 4.83333C19.0312 6.11521 18.53 7.34459 17.6377 8.25102C16.7455 9.15744 15.5353 9.66667 14.2734 9.66667Z" fill="#FF7262"/>
</svg>
