<svg width="29" height="29" viewBox="0 0 29 29" fill="none" xmlns="http://www.w3.org/2000/svg">
<path d="M0 0H29V29H0V0Z" fill="#F7DF1E"/>
<path d="M7.62523 24.2342L9.84451 22.8911C10.2727 23.6502 10.6621 24.2925 11.5963 24.2925C12.4918 24.2925 13.0564 23.9422 13.0564 22.5797V13.3135H15.7817V22.6182C15.7817 25.4409 14.1271 26.7257 11.7132 26.7257C9.53306 26.7257 8.26756 25.5965 7.62518 24.234" fill="black"/>
<path d="M17.2618 23.9427L19.4808 22.6579C20.065 23.6119 20.8242 24.3126 22.1673 24.3126C23.2965 24.3126 24.0166 23.748 24.0166 22.9694C24.0166 22.035 23.2769 21.704 22.031 21.1591L21.3499 20.8669C19.3836 20.03 18.0793 18.9788 18.0793 16.7596C18.0793 14.7156 19.6366 13.1582 22.07 13.1582C23.8026 13.1582 25.0484 13.7617 25.9438 15.3385L23.8219 16.7011C23.3547 15.8641 22.8487 15.5333 22.0701 15.5333C21.2719 15.5333 20.7658 16.0394 20.7658 16.7011C20.7658 17.5187 21.2719 17.8498 22.4398 18.3559L23.1211 18.6479C25.4376 19.6408 26.7419 20.6529 26.7419 22.9304C26.7419 25.3834 24.8148 26.7264 22.2258 26.7264C19.6951 26.7264 18.0599 25.5196 17.2619 23.9427" fill="black"/>
</svg>
