<svg width="45" height="11" viewBox="0 0 45 11" fill="none" xmlns="http://www.w3.org/2000/svg">
<path d="M19.2448 3.96009L19.2448 3.95967L18.9569 4.97861L19.2448 3.96009ZM20.7256 6.17219L20.4084 6.1703L20.7256 6.17219ZM20.644 7.69384H20.6443L18.7434 7.7007L20.644 7.69384ZM21.0425 6.17408L20.7252 6.17219L21.0425 6.17408ZM20.8106 7.56449L21.1417 6.3035L20.8106 7.56475V7.56449ZM27.8093 1.75743L27.1925 4.65303L27.8093 1.75743ZM26.2237 1.75743L25.7555 3.92055L26.2237 1.75726V1.75743Z" fill="#131B28"/>
<path d="M27.7037 1.62714H26.3847C26.3115 1.62714 26.2389 1.6858 26.2232 1.75725L25.755 3.92054L25.2867 6.08392C25.2711 6.15528 25.1986 6.21377 25.1255 6.21377H24.1919C23.2682 6.21377 23.375 5.57582 23.5642 4.70191L23.5698 4.67549L23.5905 4.56536L23.5945 4.5446L23.6366 4.32031L23.6817 4.0799C23.6955 4.00743 23.7163 3.9015 23.73 3.83494L23.9429 2.79635L24.1559 1.75776C24.1706 1.68615 24.1226 1.62731 24.0494 1.62731H22.6955C22.6223 1.62731 22.5499 1.68615 22.5349 1.75759L22.2438 3.13669L21.9527 4.51561C21.9524 4.51621 21.9523 4.51707 21.9523 4.51767L21.9252 4.64581C21.5899 6.1744 21.6788 7.63207 23.5012 7.6777C23.531 7.67855 23.554 7.67881 23.554 7.67881H26.4145C26.4877 7.67881 26.5601 7.62014 26.5754 7.54853L27.1923 4.65319L27.8092 1.75759C27.8243 1.6858 27.7769 1.62722 27.7037 1.62714ZM32.9656 6.2287C33.0389 6.2287 33.0868 6.28736 33.0721 6.35898L32.944 6.98407L32.9656 6.2287ZM32.8161 7.60942L32.9442 6.98399L32.816 7.60968L32.8161 7.60942ZM32.6555 7.74099L32.6562 7.74082C32.2679 7.74391 31.1015 7.75283 30.2248 7.75283C31.2917 7.75283 32.6554 7.74108 32.6555 7.74099ZM29.4379 5.42357C29.4369 5.35513 29.5148 5.2372 29.5882 5.2372L29.4235 5.23445C29.3492 5.97996 29.4379 5.42357 29.4379 5.42357Z" fill="#131B28"/>
<path d="M30.3449 7.7525C30.3365 7.7525 30.3279 7.7525 30.3195 7.75267C30.3279 7.7525 30.3365 7.7525 30.3449 7.7525ZM32.9656 6.22871C33.039 6.22871 33.0868 6.28737 33.0721 6.35899L32.944 6.98408L32.9232 7.08598L32.9656 6.22871ZM30.9694 7.75104H30.9641H30.9694ZM30.6456 7.75207H30.6268H30.6456ZM30.5468 7.75233C30.5363 7.75233 30.5261 7.75232 30.5158 7.7525C30.5261 7.75232 30.5363 7.75233 30.5468 7.75233ZM30.4463 7.7525H30.4191H30.4463ZM30.6267 7.75207L30.5467 7.75224L30.6267 7.75207ZM30.9643 7.75104C30.8575 7.75147 30.751 7.7519 30.646 7.75215C30.751 7.75198 30.8577 7.75147 30.9643 7.75104ZM32.8161 7.60978L32.9234 7.08606L32.8161 7.61012L32.8161 7.60978ZM30.5159 7.7525H30.4462H30.5159ZM30.3192 7.75267H30.225H30.3192ZM30.4188 7.7525H30.3446H30.4188ZM11.1243 5.43928L11.3292 4.53235L11.0949 5.56905L10.8701 6.62505L11.0672 5.69933C11.0823 5.62772 11.1081 5.51064 11.1243 5.43928ZM13.5766 1.61188H12.128C12.0547 1.61188 11.9817 1.67029 11.9653 1.74148L11.8278 2.34684L11.6905 2.95246C11.6743 3.02365 11.721 3.08206 11.7943 3.08206H13.254C13.3273 3.08206 13.4 3.02365 13.4158 2.95221L13.5485 2.34684L13.6813 1.7419V1.74173C13.697 1.67037 13.6499 1.61188 13.5766 1.61188ZM13.2613 3.62567V3.6255L12.8365 5.58809L13.2613 3.62567ZM9.05335 10.1286C9.05335 10.1286 9.78354 10.1379 10.2476 10.1379C9.89512 10.1379 9.31267 10.1315 9.05275 10.1284L9.05335 10.1286ZM11.534 3.62541L11.3289 4.53235L11.534 3.62541Z" fill="#131B28"/>
<path d="M13.1565 3.49566H11.6966C11.6234 3.49566 11.5502 3.55407 11.5341 3.62551L11.329 4.53244L11.124 5.43938C11.1079 5.51074 11.0821 5.62781 11.0669 5.69943L10.8699 6.62515L10.673 7.55086C10.6536 7.63726 10.6302 7.72269 10.6027 7.80688C10.6027 7.80688 10.33 8.61724 9.8715 8.60806C9.85192 8.60763 9.83302 8.60746 9.81421 8.60695C9.592 8.60274 9.41746 8.59966 9.41746 8.59966H9.41712C9.34402 8.59854 9.27058 8.65549 9.25349 8.72651L9.10206 9.36207L8.95079 9.99728C8.93387 10.0683 8.97974 10.127 9.05258 10.1282C9.31258 10.1313 9.89495 10.1378 10.2475 10.1378C11.3929 10.1378 11.9966 9.5041 12.3837 7.68072L12.8366 5.5881L13.2614 3.62543C13.2769 3.55415 13.2296 3.49566 13.1565 3.49566ZM33.8958 7.67857C33.8226 7.67857 33.7752 7.61991 33.7905 7.5482L34.8888 2.41144L33.8958 7.67857ZM35.4222 7.54812L35.8664 5.35566L35.4222 7.54812Z" fill="#131B28"/>
<path d="M33.8065 7.61342C33.7976 7.57765 33.8028 7.49 33.8183 7.41829L34.3396 4.98003L33.7904 7.54832C33.775 7.61994 33.8225 7.67861 33.8957 7.67861H34.0291C33.9558 7.67852 33.8153 7.64927 33.8065 7.61342ZM35.3354 7.64927C35.2956 7.6654 35.2029 7.67861 35.1296 7.67861H35.263C35.3363 7.67861 35.4081 7.61994 35.4226 7.54815L35.4491 7.41787C35.4344 7.4894 35.3754 7.63306 35.3354 7.64927ZM35.6446 6.45184L35.8407 5.48418C35.8406 5.48478 35.8405 5.48564 35.8403 5.48607L35.6446 6.45184ZM39.978 2.75558L40.0385 3.00517C40.0552 3.07662 40.009 3.1346 39.9359 3.13477L39.978 2.75558ZM35.4488 7.41787L35.6443 6.45192L35.4488 7.41787ZM39.9178 2.4999L39.9777 2.75558L39.9178 2.4999ZM35.8405 5.48427C35.8551 5.41265 35.8792 5.2966 35.8944 5.22567L36.1038 4.24609L35.8667 5.3557L35.8405 5.48427ZM34.9068 2.32733C34.8923 2.39646 34.8736 2.48378 34.8613 2.54158L34.3401 4.98003L34.8892 2.41156L34.9068 2.32733Z" fill="#131B28"/>
<path d="M40.0381 3.00519L39.9777 2.7556L39.9178 2.49992L39.8875 2.3705C39.7689 1.91051 39.4207 1.64497 38.6649 1.64497L37.4882 1.64368L36.4045 1.6424H35.1851C35.1119 1.6424 35.0395 1.7008 35.0244 1.77242H35.0243L34.9704 2.02682L34.9068 2.32727L34.889 2.41141L34.3399 4.97988L33.8187 7.41815C33.8031 7.48985 33.798 7.57751 33.8068 7.61328C33.8157 7.64913 33.9561 7.67846 34.0295 7.67846H35.1296C35.203 7.67846 35.2956 7.66525 35.3354 7.64913C35.3754 7.633 35.4344 7.48934 35.449 7.41772L35.6445 6.45178L35.8402 5.48601L35.8406 5.48412L35.8667 5.35555L36.1039 4.24594L36.3133 3.26594C36.3289 3.19475 36.401 3.13651 36.474 3.13634L39.9356 3.13462C40.0086 3.13462 40.0549 3.07656 40.0381 3.00519Z" fill="#131B28"/>
<path d="M44.4944 0.748343C44.421 0.748858 44.3013 0.749287 44.228 0.749287H43.12C43.0466 0.749287 42.9529 0.79869 42.9115 0.859072L40.4616 4.44314C40.4202 4.5037 40.3731 4.49469 40.3568 4.4235L40.1765 3.63382C40.1602 3.56237 40.0868 3.50422 40.0136 3.50422H38.4385C38.3652 3.50422 38.3218 3.5616 38.3418 3.63193L39.0476 6.10073C39.0677 6.17106 39.0692 6.28668 39.0511 6.35753L38.7435 7.55239C38.7252 7.62332 38.7703 7.68139 38.8436 7.68139H40.4002C40.4735 7.68139 40.5483 7.62332 40.5665 7.55239L40.8743 6.35753C40.8924 6.28668 40.9433 6.18076 40.9875 6.12235L44.9649 0.85101C45.0091 0.7926 44.9851 0.745084 44.912 0.745598L44.4944 0.748343ZM31.9812 3.84027L31.9812 3.83881C31.972 3.91814 31.8986 3.97638 31.8255 3.97638H29.8286C29.7596 3.97638 29.7244 3.92947 29.7347 3.87166C29.7353 3.86994 29.7355 3.86848 29.7365 3.86703C29.7365 3.86703 29.7358 3.8672 29.7352 3.86763C29.7356 3.86531 29.7356 3.86317 29.7363 3.86094L29.7454 3.82697C29.9362 3.32067 30.3246 2.98831 31.0547 2.98831C31.8766 2.9884 32.0371 3.38946 31.9812 3.84027ZM31.3954 1.53871C28.8323 1.53871 28.2249 3.09227 27.8841 4.66023C27.5434 6.25838 27.5728 7.75266 30.225 7.75266H30.3193C30.3277 7.75249 30.3362 7.75249 30.3446 7.75249H30.5157C30.526 7.75232 30.5362 7.75232 30.5467 7.75232L30.6267 7.75215H30.6454C30.7505 7.75198 30.857 7.75146 30.9637 7.75112H30.969C31.6694 7.74837 32.372 7.74306 32.6565 7.74083C32.7293 7.73971 32.8005 7.68113 32.8155 7.6102L32.9228 7.08614L32.9437 6.98416L33.0719 6.35916C33.0865 6.28745 33.0385 6.22879 32.9653 6.22879H30.5807C29.6324 6.22879 29.3508 5.97714 29.4546 5.23729H33.2663L33.266 5.23772C33.2669 5.23772 33.2678 5.23729 33.2686 5.23729C33.3291 5.23617 33.3851 5.19457 33.4074 5.13908C33.4116 5.12836 33.4152 5.11729 33.4165 5.1058L33.4161 5.10623C33.9821 2.9745 33.8197 1.53888 31.3952 1.53888L31.3954 1.53871ZM19.2808 3.83212L19.2448 3.95966L19.2447 3.96009L18.9568 4.9786L18.6691 5.99695C18.6493 6.06728 18.5731 6.12483 18.4996 6.12483H16.9763C15.8208 6.12483 15.5393 5.22245 15.8208 3.89121C16.102 2.5297 16.6537 1.68332 17.7911 1.59764C19.3452 1.48065 19.6561 2.57216 19.2808 3.83212ZM20.3256 6.04653C20.3256 6.04653 21.0438 4.30514 21.207 3.29923C21.4294 1.95273 20.7543 0 18.1465 0C15.5536 0 14.4277 1.86438 13.9981 3.89113C13.5685 5.93254 14.1314 7.7229 16.7095 7.70823L18.7434 7.70069L20.6443 7.69382C20.7176 7.69314 20.7924 7.63516 20.8111 7.56457L21.1421 6.30332C21.1606 6.23256 21.1158 6.17432 21.0426 6.17389L20.7252 6.17209L20.408 6.17021C20.3457 6.16978 20.31 6.12955 20.3176 6.07612C20.319 6.06592 20.3216 6.05593 20.3254 6.04636L20.3256 6.04653Z" fill="#131B28"/>
<path d="M33.1614 4.88095C33.1614 4.90411 33.1522 4.92632 33.1358 4.9427C33.1194 4.95907 33.0972 4.96827 33.074 4.96827C33.0508 4.96827 33.0285 4.95907 33.0122 4.9427C32.9958 4.92632 32.9865 4.90411 32.9865 4.88095C32.9865 4.8578 32.9958 4.83559 33.0122 4.81921C33.0285 4.80284 33.0508 4.79364 33.074 4.79364C33.0972 4.79364 33.1194 4.80284 33.1358 4.81921C33.1522 4.83559 33.1614 4.8578 33.1614 4.88095Z" fill="#131B28"/>
<path d="M0.526489 2.61675C-0.189444 3.64427 -0.100371 4.98108 0.446521 6.07285C0.459491 6.09909 0.473234 6.12474 0.486634 6.15055C0.495223 6.16685 0.503211 6.18366 0.51223 6.1997C0.517298 6.20931 0.522881 6.21883 0.528207 6.228C0.537483 6.24533 0.547104 6.26197 0.556724 6.27887C0.573645 6.30889 0.591082 6.33856 0.608862 6.36832C0.61874 6.38462 0.628532 6.401 0.638667 6.4173C0.658337 6.44912 0.678608 6.48051 0.699309 6.51199C0.707898 6.52537 0.71623 6.53875 0.725077 6.55179C0.753595 6.59424 0.782799 6.63653 0.812776 6.6783L0.815267 6.68164C0.820077 6.68833 0.825231 6.69477 0.830127 6.70146C0.856153 6.73731 0.882952 6.77264 0.910095 6.80764C0.920058 6.82033 0.930108 6.8332 0.940244 6.84589C0.973767 6.8878 1.00781 6.92929 1.04237 6.97034C1.07667 7.0108 1.11166 7.05066 1.14734 7.08991C1.14888 7.09162 1.15008 7.09257 1.15129 7.09428C1.22286 7.17183 1.29685 7.24711 1.37315 7.32003C1.38466 7.33092 1.396 7.34207 1.40734 7.35245C1.44545 7.38836 1.48422 7.42356 1.52364 7.45803C1.53025 7.46386 1.53704 7.46944 1.54357 7.47501C1.57767 7.50461 1.61254 7.53394 1.6475 7.56267C1.66176 7.57425 1.67628 7.58557 1.69062 7.59698C1.71922 7.61988 1.74817 7.64244 1.77737 7.66465L1.82367 7.69982C1.85588 7.7234 1.88826 7.74673 1.92099 7.76955C1.93302 7.77813 1.94444 7.78645 1.95646 7.79459C1.95981 7.79691 1.96282 7.79931 1.96617 7.80154C1.99718 7.8229 2.02896 7.8434 2.06065 7.86398C2.07431 7.87299 2.0878 7.88242 2.10163 7.89117C2.15024 7.92196 2.19972 7.95232 2.24962 7.98166C2.26311 7.98946 2.27685 7.99701 2.29051 8.00473C2.32727 8.02592 2.36412 8.04659 2.40157 8.067C2.42176 8.07789 2.44263 8.0881 2.46299 8.09856C2.48944 8.11237 2.51564 8.12644 2.54252 8.13982C2.54854 8.14273 2.55489 8.14565 2.56091 8.14865C2.57164 8.15388 2.58255 8.15886 2.59337 8.16435C2.64386 8.1886 2.69475 8.21202 2.74601 8.23459C2.79454 8.25569 2.8435 8.27602 2.89289 8.29549C2.90474 8.30038 2.91668 8.30493 2.92862 8.30956C2.9803 8.3295 3.0323 8.3486 3.08461 8.36685C3.13571 8.38469 3.18725 8.40116 3.23922 8.41737C3.25159 8.42097 3.26404 8.42492 3.27658 8.42852C3.32941 8.44447 3.38172 8.46343 3.43609 8.47346C6.89859 9.10396 7.90433 6.39577 7.90433 6.39577C7.05964 7.49466 5.56026 7.78439 4.13965 7.46181C4.08588 7.44963 4.03366 7.4329 3.98109 7.41738C3.9166 7.39826 3.85253 7.37773 3.78894 7.35579L3.76798 7.34825C3.72288 7.33229 3.67801 7.31568 3.63339 7.29841C3.62085 7.29335 3.60822 7.28864 3.59568 7.28358C3.54688 7.26434 3.49843 7.24424 3.45035 7.22328C3.44055 7.21908 3.43102 7.21462 3.42131 7.2105C3.36831 7.18655 3.31562 7.1619 3.26327 7.13657C3.2314 7.12104 3.19996 7.10457 3.16844 7.08836C3.14739 7.0773 3.12601 7.06684 3.10513 7.05526C3.06688 7.03472 3.02899 7.0135 2.9915 6.99162C2.97887 6.9845 2.9659 6.97763 2.95319 6.97026C2.90334 6.94086 2.85398 6.91067 2.8051 6.87969C2.7917 6.87111 2.77848 6.86202 2.76516 6.8531C2.7297 6.83034 2.69459 6.80704 2.65986 6.78319C2.64826 6.77547 2.63718 6.76707 2.62584 6.75944C2.59234 6.73585 2.55927 6.71183 2.52629 6.68756C2.51134 6.6765 2.49666 6.66526 2.48214 6.6542C2.43844 6.62064 2.39511 6.58658 2.35218 6.55204C2.31445 6.52119 2.27717 6.48979 2.24035 6.45787L2.22798 6.44758C2.18823 6.41259 2.14903 6.37699 2.11039 6.34079C2.09914 6.33007 2.08823 6.31969 2.07723 6.30897C2.04859 6.28186 2.02042 6.25427 1.99271 6.2262C1.98163 6.21514 1.97047 6.20425 1.95956 6.19318C1.92434 6.15716 1.88981 6.12062 1.85588 6.08365L1.85073 6.07825C1.8149 6.03906 1.77982 5.9992 1.74551 5.95869C1.73623 5.94754 1.72713 5.9369 1.71793 5.92601C1.69228 5.89519 1.66706 5.86403 1.64226 5.83252C1.6329 5.82112 1.62366 5.80962 1.61452 5.79804C1.58471 5.75944 1.55559 5.72093 1.52708 5.68182C0.738305 4.60764 0.455024 3.12588 1.08532 1.90906" fill="#0868AC"/>
<path d="M2.74884 1.75109C2.23115 2.49506 2.25924 3.49102 2.66312 4.27788C2.73073 4.41015 2.80724 4.53769 2.89211 4.65964C2.96968 4.77063 3.05566 4.90271 3.15864 4.992C3.19601 5.03308 3.23501 5.07305 3.27486 5.11242C3.28491 5.12271 3.29522 5.13249 3.30544 5.14261C3.34409 5.18009 3.38343 5.21697 3.42415 5.25274C3.42586 5.25403 3.42732 5.25566 3.42896 5.25694C3.42947 5.25737 3.4299 5.25754 3.43016 5.25806C3.47508 5.29743 3.52155 5.33534 3.56879 5.37256C3.57927 5.38054 3.58958 5.38886 3.60023 5.39709C3.64747 5.43328 3.69574 5.46888 3.74522 5.50284C3.74677 5.50387 3.74797 5.5049 3.74943 5.50602C3.77125 5.52111 3.79349 5.53509 3.81565 5.54959C3.82622 5.55645 3.83627 5.56383 3.84701 5.57026C3.88231 5.5929 3.91804 5.61495 3.95446 5.63604C3.9597 5.63922 3.96459 5.64188 3.96966 5.64488C4.00101 5.66289 4.0328 5.68065 4.06466 5.6978C4.07583 5.70406 4.08708 5.70955 4.0985 5.71538C4.12049 5.72696 4.14257 5.73863 4.1649 5.74969C4.16825 5.75141 4.17169 5.75286 4.17495 5.75432C4.22056 5.77679 4.26651 5.79841 4.3135 5.81882C4.32355 5.82328 4.33394 5.82723 4.34408 5.83134C4.3817 5.8473 4.41958 5.86282 4.45772 5.8774C4.47386 5.88349 4.49027 5.88941 4.50633 5.89524C4.54095 5.90802 4.57574 5.91977 4.61069 5.93152C4.62659 5.93658 4.64205 5.94173 4.65794 5.94662C4.70767 5.96206 4.75689 5.98153 4.80877 5.99019C7.48207 6.43242 8.09931 4.37711 8.09931 4.37711C7.54288 5.17726 6.46551 5.55894 5.31589 5.26097C5.24967 5.24357 5.18401 5.22409 5.11902 5.20256C5.06729 5.18585 5.01602 5.16775 4.96527 5.14827C4.92701 5.13365 4.88901 5.11835 4.85129 5.10238C4.84106 5.09801 4.83067 5.09398 4.82062 5.08943C4.77364 5.06899 4.72716 5.04743 4.68121 5.02476C4.65759 5.01327 4.6344 5.00109 4.6113 4.98917L4.57093 4.96841C4.54117 4.95227 4.51168 4.93566 4.48245 4.91858C4.4755 4.91463 4.46828 4.91077 4.46124 4.90666C4.42508 4.88547 4.38943 4.86377 4.35413 4.8413C4.34322 4.83435 4.33274 4.82689 4.32183 4.81977C4.29852 4.80471 4.27535 4.78941 4.25234 4.77389C4.20338 4.73984 4.1552 4.70466 4.10787 4.66839C4.09696 4.65981 4.08605 4.65141 4.07531 4.64283C3.57206 4.24606 3.17316 3.7039 2.98351 3.08911C2.78474 2.45149 2.82761 1.73574 3.17196 1.15491" fill="#0868AC"/>
<path d="M4.618 1.10429C4.31282 1.55278 4.28284 2.10986 4.49457 2.60526C4.71798 3.13103 5.17563 3.54359 5.70972 3.73914C5.73171 3.74738 5.75379 3.75467 5.77604 3.76221C5.78574 3.76513 5.79545 3.76856 5.80533 3.77139C5.83676 3.78126 5.86794 3.79275 5.9005 3.79884C7.3766 4.08359 7.77695 3.04252 7.88355 2.88925C7.53284 3.39349 6.94343 3.51451 6.22028 3.33928C6.16112 3.32415 6.10273 3.30614 6.04532 3.28533C5.97459 3.26026 5.90523 3.23149 5.83754 3.19913C5.70904 3.13739 5.58701 3.06304 5.47326 2.97716C4.82613 2.4869 4.42414 1.55158 4.8464 0.789856L4.618 1.10429ZM21.2427 9.84039L20.8172 10.808H20.3474L20.3859 9.92873L20.0401 10.808H19.5853L19.5732 9.84039L19.6235 9.60143H19.9456L19.8835 10.5573L20.2411 9.60143H20.6901L20.6576 10.5691L21.0122 9.60143H21.2928L21.2427 9.84039ZM21.9839 10.1269C22.0253 9.93791 22.0135 9.90257 21.916 9.90257H21.7682L21.6736 10.3452L21.5288 10.8081H21.2541L21.4785 9.75805L21.5112 9.60452H21.7623L21.7948 9.67528C21.7948 9.67528 21.9396 9.58986 22.0813 9.58986C22.3828 9.58986 22.3591 9.8168 22.294 10.1268L21.9839 10.1269ZM22.8764 9.45091C22.7554 9.45091 22.6785 9.41557 22.708 9.26813C22.7405 9.12052 22.8351 9.0851 22.9532 9.0851C23.0716 9.0851 23.1513 9.12052 23.1188 9.26813C23.0891 9.41265 22.9947 9.45091 22.8764 9.45091ZM22.7464 10.8081H22.4745L22.5278 10.3361L22.6223 9.89957L22.4334 9.85814L22.4864 9.60161H23.0034L22.7464 10.8081ZM23.9252 9.85754L23.5855 9.89906L23.4878 10.3592C23.4612 10.4862 23.4612 10.5216 23.5736 10.5216H23.801L23.7536 10.7634C23.7536 10.7634 23.547 10.8254 23.4582 10.8254C23.1096 10.8254 23.1125 10.6337 23.1747 10.3474L23.2693 9.89605L23.0801 9.85489L23.1362 9.59818H23.3343L23.4467 9.29412H23.7155L23.6504 9.59818H23.9813L23.9252 9.85754ZM24.6312 9.8729C24.4718 9.8729 24.389 9.95566 24.3565 10.1031L24.8115 10.0648C24.8321 9.9645 24.8114 9.8729 24.6312 9.8729ZM24.3123 10.3213C24.2914 10.469 24.3476 10.519 24.5367 10.519H25.0123L24.965 10.7432C24.965 10.7432 24.6785 10.8228 24.4658 10.8228C23.9369 10.8228 23.9309 10.5251 23.999 10.2063C24.0669 9.89357 24.1879 9.58394 24.699 9.58394C25.1925 9.58394 25.2162 9.88182 25.095 10.3213H24.3123ZM26.1791 10.8079H25.9074L25.9605 10.3359L26.1526 9.43899L25.9633 9.39482L26.0195 9.13811H26.5366L26.1791 10.8079ZM27.1608 9.8729C27.0012 9.8729 26.9185 9.95566 26.886 10.1031L27.341 10.0648C27.3616 9.9645 27.341 9.8729 27.1608 9.8729ZM26.8416 10.3213C26.821 10.469 26.8772 10.519 27.0661 10.519H27.5419L27.4945 10.7432C27.4945 10.7432 27.2078 10.8228 26.9951 10.8228C26.4663 10.8228 26.4604 10.5251 26.5284 10.2063C26.5964 9.89357 26.7175 9.58394 27.2286 9.58394C27.722 9.58394 27.7457 9.88182 27.6246 10.3213H26.8416ZM28.871 9.88756C28.871 9.88756 28.5254 9.89048 28.4308 9.89048C28.2298 9.89048 28.2092 9.95232 28.1945 10.0172L28.1825 10.0762L28.8207 10.1235C28.8207 10.1235 28.8237 10.327 28.7971 10.4421C28.7587 10.6338 28.5607 10.8285 28.2033 10.8285C28.026 10.8285 27.7394 10.7608 27.7394 10.7608L27.7896 10.5278H28.2299C28.4249 10.5278 28.4516 10.4745 28.4635 10.4216L28.4782 10.3449L27.8519 10.2975C27.8519 10.2975 27.8282 10.1411 27.8607 9.98491C27.9081 9.77229 28.1028 9.5896 28.4603 9.5896C28.6376 9.5896 28.9242 9.65427 28.9242 9.65427L28.871 9.88756ZM30.0589 9.88756C30.0589 9.88756 29.7134 9.89048 29.6187 9.89048C29.4178 9.89048 29.3972 9.95232 29.3824 10.0172L29.3704 10.0762L30.0088 10.1235C30.0088 10.1235 30.0117 10.327 29.9851 10.4421C29.9467 10.6338 29.7488 10.8285 29.3913 10.8285C29.2141 10.8285 28.9274 10.7608 28.9274 10.7608L28.9777 10.5278H29.4179C29.6129 10.5278 29.6394 10.4745 29.6514 10.4216L29.6661 10.3449L29.0397 10.2975C29.0397 10.2975 29.0162 10.1411 29.0485 9.98491C29.096 9.77229 29.2908 9.5896 29.6484 9.5896C29.8255 9.5896 30.1121 9.65427 30.1121 9.65427L30.0589 9.88756ZM30.4308 11H30.1946L30.2035 10.8229C30.1177 10.8173 30.0734 10.7553 30.0941 10.6518C30.1266 10.5043 30.2183 10.469 30.3394 10.469C30.4575 10.469 30.5371 10.5043 30.5048 10.6518L30.4308 11ZM32.0113 9.89957C31.8342 9.89957 31.7722 10.0058 31.7307 10.2005C31.6894 10.3952 31.7011 10.5102 31.8783 10.5102H32.1236L32.2595 9.89957H32.0113ZM32.4161 10.6517L32.3835 10.8081L32.1355 10.8051L32.1 10.7285C32.1 10.7285 31.8812 10.8227 31.7337 10.8227C31.3554 10.8227 31.3376 10.5131 31.4056 10.2004C31.4735 9.88173 31.6213 9.58076 31.9965 9.58076C32.1326 9.58076 32.3156 9.64861 32.3156 9.64861L32.4663 9.13828H32.7382L32.4161 10.6517ZM33.3942 9.88756C33.1638 9.88756 33.0898 10.0172 33.0486 10.206C33.0102 10.3978 33.028 10.5277 33.2552 10.5277C33.4917 10.5277 33.5627 10.4008 33.604 10.206C33.6455 10.023 33.6334 9.88756 33.3942 9.88756ZM33.1934 10.8257C32.7059 10.8257 32.6674 10.5219 32.7324 10.2061C32.8004 9.89048 32.9718 9.5896 33.4593 9.5896C33.9438 9.5896 33.9882 9.89048 33.9201 10.2061C33.8522 10.5278 33.6808 10.8257 33.1934 10.8257ZM35.959 10.8079L36.0123 10.3417L36.0389 10.2089C36.0773 10.0321 36.101 9.90223 35.9148 9.90223H35.7701C35.776 9.99366 35.7581 10.097 35.7346 10.206L35.6075 10.8079H35.3328L35.3859 10.3417L35.4125 10.2089C35.451 10.0321 35.4745 9.90223 35.2886 9.90223H35.1703L34.9752 10.8079H34.659L34.9161 9.60143H35.1642L35.2026 9.67511C35.2026 9.67511 35.3712 9.58651 35.5071 9.58651C35.6104 9.58651 35.6873 9.63386 35.7139 9.69269C35.7729 9.66019 35.9413 9.58651 36.0626 9.58651C36.4405 9.58651 36.4289 9.89322 36.3608 10.2062L36.2338 10.808H35.959V10.8079ZM37.2148 9.88756C36.9842 9.88756 36.9104 10.0172 36.8692 10.206C36.8308 10.3978 36.8486 10.5277 37.0759 10.5277C37.3122 10.5277 37.3833 10.4008 37.4247 10.206C37.4659 10.023 37.4541 9.88756 37.2148 9.88756ZM37.0139 10.8257C36.5262 10.8257 36.488 10.5219 36.553 10.2061C36.6209 9.89048 36.7923 9.5896 37.2798 9.5896C37.7645 9.5896 37.8087 9.89048 37.7407 10.2061C37.6728 10.5278 37.5014 10.8257 37.0139 10.8257ZM38.5616 10.1269C38.6029 9.93791 38.5912 9.90257 38.4938 9.90257H38.3459L38.2513 10.3452L38.1064 10.8081H37.8318L38.0562 9.75805L38.0888 9.60452H38.3399L38.3723 9.67528C38.3723 9.67528 38.5172 9.58986 38.6591 9.58986C38.9604 9.58986 38.9367 9.8168 38.8717 10.1268L38.5616 10.1269ZM39.6199 9.8729C39.4605 9.8729 39.3777 9.95566 39.3453 10.1031L39.8001 10.0648C39.8208 9.9645 39.8 9.8729 39.6199 9.8729ZM39.3008 10.3213C39.2802 10.469 39.3362 10.519 39.5253 10.519H40.001L39.9537 10.7432C39.9537 10.7432 39.6671 10.8228 39.4545 10.8228C38.9257 10.8228 38.9197 10.5251 38.9874 10.2063C39.0555 9.89357 39.1767 9.58394 39.6877 9.58394C40.181 9.58394 40.2049 9.88182 40.0836 10.3213H39.3008ZM40.3491 10.8259C40.225 10.8259 40.1483 10.7906 40.1808 10.646C40.2102 10.4982 40.3018 10.463 40.426 10.463C40.5412 10.463 40.6209 10.4982 40.5915 10.646C40.5588 10.7875 40.4645 10.8259 40.3491 10.8259Z" fill="#0868AC"/>
</svg>
