<svg width="28" height="13" viewBox="0 0 28 13" fill="none" xmlns="http://www.w3.org/2000/svg">
<path d="M6.68216 0.388882C6.78014 0.232115 6.90756 0.0815047 7.09058 0.00763094C7.16571 -0.00462409 7.24085 0.00156053 7.31595 0.00156053H11.0147C10.9069 0.0875748 10.8024 0.176767 10.7305 0.293533C10.541 0.585593 10.4135 0.91141 10.296 1.23723C9.96267 2.22101 9.73062 3.23231 9.50514 4.24369C9.40354 4.70176 9.30662 5.16085 9.21439 5.62089C8.93336 7.12104 8.64259 8.61799 8.27989 10.1027C8.10677 10.7883 7.93028 11.4738 7.66239 12.1346C7.53818 12.4083 7.41734 12.7003 7.17883 12.9031C7.12328 12.9493 7.06773 13.0076 6.98922 12.9985H3.72185C3.49966 12.9923 3.28073 13.0107 3.05853 12.9892C3.20562 12.8817 3.33628 12.7525 3.42126 12.5988C3.6663 12.1592 3.81983 11.6828 3.96689 11.2094C4.19567 10.4471 4.3785 9.67547 4.55181 8.90389C4.65965 8.39671 4.78704 7.89251 4.86543 7.38224C4.95368 6.81355 5.08763 6.25102 5.19546 5.6854C5.36537 4.85229 5.54504 4.01932 5.74439 3.19239C5.90448 2.54683 6.06786 1.90427 6.28676 1.27414C6.39468 0.969851 6.51213 0.6686 6.68216 0.388882Z" fill="#EB7077"/>
<path d="M11.0149 0.0013744C11.1096 0.0013744 11.2043 -0.00171799 11.2991 0.0013744C11.5082 0.105886 11.6847 0.271815 11.7827 0.477774C11.9134 0.711422 12.0213 0.957381 12.1191 1.20944C12.446 2.15929 12.6682 3.13683 12.8904 4.11128C13.0801 4.9853 13.2598 5.86145 13.4295 6.73958C13.4426 6.78568 13.4263 6.85027 13.4916 6.86253C13.2563 8.01834 13.0243 9.17724 12.7303 10.3239C12.5701 10.9418 12.4002 11.5566 12.1585 12.153C12.0277 12.4511 11.8938 12.7769 11.616 12.9891C11.4397 13.0259 11.3121 12.8999 11.2044 12.7861C11.0182 12.5618 10.9037 12.2974 10.7926 12.033C10.4233 11.0863 10.198 10.0995 9.96934 9.11582C9.7961 8.35031 9.64249 7.57885 9.4824 6.81036C9.41044 6.41983 9.31258 6.0356 9.25703 5.64527C9.24718 5.63912 9.22421 5.62678 9.21448 5.62071C9.3067 5.16065 9.40362 4.70155 9.50525 4.24348C9.73073 3.23209 9.96275 2.22074 10.2961 1.23713C10.4136 0.911196 10.5411 0.585407 10.7306 0.293433C10.8026 0.176553 10.907 0.08736 11.0148 0.0013744H11.0149Z" fill="#F6A2AD"/>
<path d="M15.1021 0.533257C15.2199 0.321228 15.3636 0.0845168 15.6185 0.00457279C16.9157 -0.00158336 18.2129 0.00150919 19.51 0.00150919C19.3891 0.115183 19.2617 0.228971 19.1799 0.373397C18.9284 0.797656 18.7813 1.26801 18.631 1.73219C18.2455 3.01095 17.9743 4.31737 17.7161 5.62382C17.4776 6.91194 17.2227 8.19984 16.932 9.4818C16.7817 10.1273 16.6248 10.7697 16.4256 11.406C16.2981 11.7995 16.1642 12.1961 15.955 12.5619C15.8537 12.7279 15.736 12.9093 15.5434 12.9953C14.305 13.0046 13.0633 12.9953 11.825 12.9983C11.7563 12.9983 11.6845 12.9983 11.6158 12.9892C11.8936 12.7771 12.0275 12.4512 12.1583 12.153C12.4001 11.5567 12.5699 10.9419 12.7301 10.324C13.0241 9.17737 13.2561 8.01859 13.4914 6.86266C13.7756 5.37176 14.073 3.88088 14.452 2.40839C14.6284 1.7721 14.7983 1.12657 15.1022 0.533257H15.1021Z" fill="#EB7077"/>
<path d="M19.5099 0.0013744C19.6144 0.0013744 19.7222 -0.00171799 19.8267 0.0013744C19.9967 0.0843822 20.1176 0.225744 20.2254 0.37017C20.4018 0.63457 20.5129 0.932814 20.6273 1.22479C20.8985 2.00868 21.1011 2.8141 21.2873 3.61944C21.5357 4.70458 21.7513 5.79588 21.9636 6.8871C22.0159 7.1484 22.0682 7.41272 22.1009 7.6772L22.1499 7.72327C22.0323 7.87698 21.9865 8.06143 21.9212 8.23664C21.7153 8.8607 21.5814 9.50624 21.467 10.1487C21.3788 10.6528 21.2579 11.1539 21.0913 11.6396C20.9671 11.9992 20.8168 12.3558 20.5686 12.657C20.4508 12.8016 20.2907 12.9122 20.1143 12.9859C19.8432 13.0136 19.6829 12.7677 19.5523 12.5864C19.2811 12.1406 19.1341 11.6427 18.9772 11.1569C18.461 9.3586 18.1244 7.51731 17.7618 5.68828C17.7605 5.67465 17.7556 5.6616 17.7477 5.65046C17.7395 5.63903 17.7286 5.62983 17.716 5.62368C17.9741 4.31723 18.2453 3.01081 18.6309 1.73205C18.7811 1.26788 18.9282 0.797521 19.1798 0.373263C19.2615 0.228837 19.3889 0.115048 19.5099 0.0013744ZM0 6.99473C0.0850694 6.98857 0.170024 6.97632 0.258186 6.97632H3.8197C3.96994 6.99473 4.12685 6.9825 4.27065 7.04401C4.48122 7.12544 4.66498 7.25804 4.8032 7.42826C4.8196 7.41902 4.84901 7.39442 4.8653 7.38208C4.78691 7.89235 4.65952 8.39644 4.55168 8.90371C4.37848 9.67529 4.19554 10.4469 3.96676 11.2092C3.8197 11.6826 3.66617 12.159 3.42113 12.5987C3.33615 12.7523 3.20549 12.8814 3.0584 12.9891C3.00285 12.9983 2.96042 12.9614 2.91461 12.9337C2.76108 12.8415 2.67283 12.6817 2.57814 12.5372C2.13046 11.5781 2.08147 10.5175 1.80372 9.51543C1.66322 9.0144 1.48999 8.51639 1.23521 8.0553C1.0783 7.77856 0.885598 7.51428 0.633997 7.30214C0.447795 7.16077 0.232044 7.04701 0.000114533 6.99473H0Z" fill="#F6A2AD"/>
<path d="M22.4376 7.31482C22.6434 7.09652 22.9505 6.95826 23.261 6.97051H25.9403C26.3127 6.97669 26.6885 6.95826 27.061 6.97976C26.9499 7.05045 26.8159 7.07811 26.6983 7.13655C26.2899 7.31176 25.9403 7.60371 25.7181 7.96955C25.3619 8.55367 25.2377 9.22383 25.1332 9.88162C25.0286 10.5272 25.0319 11.1942 24.8097 11.8214C24.6595 12.2609 24.4307 12.7035 24.0353 12.9925C22.8069 13.0049 21.5782 12.9956 20.3529 12.9987C20.2713 12.9987 20.1928 13.0017 20.1144 12.9863C20.2908 12.9127 20.4509 12.802 20.5686 12.6574C20.8169 12.3562 20.9673 11.9996 21.0914 11.64C21.258 11.1542 21.379 10.6532 21.4671 10.1491C21.5815 9.50661 21.7154 8.86096 21.9213 8.23702C21.9866 8.06184 22.0324 7.87738 22.15 7.72368C22.2481 7.58839 22.3134 7.43159 22.4376 7.31482Z" fill="#EB7077"/>
</svg>
