<svg width="31" height="29" viewBox="0 0 31 29" fill="none" xmlns="http://www.w3.org/2000/svg">
<path d="M27.8024 22.4295C26.1601 22.3894 24.8873 22.5502 23.8197 22.9922C23.5118 23.1127 23.0191 23.1128 22.978 23.4945C23.1423 23.6553 23.1628 23.9165 23.3065 24.1375C23.553 24.5392 23.984 25.0819 24.3741 25.3632C24.8051 25.6847 25.2363 26.0061 25.6878 26.2875C26.4885 26.7697 27.3918 27.051 28.1719 27.5332C28.6237 27.8143 29.0751 28.1762 29.5267 28.4776C29.7526 28.6382 29.8962 28.8995 30.1837 29V28.9397C30.0399 28.7589 29.9989 28.4977 29.8553 28.2967C29.6501 28.0958 29.4447 27.9149 29.2394 27.714C28.644 26.9305 27.905 26.2472 27.1044 25.6847C26.4475 25.2426 25.0104 24.6398 24.7435 23.8963C24.7435 23.8963 24.7229 23.8763 24.7025 23.8563C25.1541 23.816 25.6878 23.6553 26.119 23.5347C26.817 23.3538 27.4534 23.394 28.1719 23.2133C28.5003 23.1328 28.8288 23.0324 29.1572 22.9319V22.7512C28.7879 22.3894 28.5209 21.9072 28.1308 21.5656C27.0839 20.6813 25.9342 19.8175 24.7435 19.0942C24.1071 18.6923 23.2859 18.431 22.6085 18.0896C22.3623 17.9688 21.9516 17.9087 21.808 17.7077C21.4383 17.2657 21.2331 16.683 20.9662 16.1606C20.3711 15.0553 19.796 13.8298 19.2828 12.6645C18.9135 11.8808 18.6876 11.0971 18.2359 10.3738C16.1215 6.95802 13.8222 4.88846 10.2913 2.859C9.53166 2.4371 8.62848 2.25621 7.6636 2.03524C7.15051 2.01507 6.63716 1.97499 6.12394 1.95482C5.79553 1.81414 5.46699 1.43246 5.17953 1.25157C4.00963 0.528146 0.99174 -1.03895 0.129509 1.0306C-0.424795 2.33664 0.95066 3.62251 1.42279 4.28567C1.77194 4.74779 2.22346 5.27015 2.46984 5.79265C2.61356 6.134 2.65452 6.4959 2.79824 6.85755C3.12678 7.74144 3.43458 8.72616 3.86577 9.55006C4.09166 9.97196 4.3379 10.414 4.62536 10.7957C4.78956 11.0167 5.07688 11.1173 5.13857 11.4789C4.85125 11.8808 4.83064 12.4836 4.66631 12.9859C3.92733 15.2564 4.21478 18.0694 5.2617 19.7371C5.5901 20.2393 6.3703 21.3446 7.41722 20.9226C8.34101 20.561 8.13573 19.4156 8.40258 18.411C8.46427 18.1697 8.42318 18.0091 8.5463 17.8484C8.54641 17.8685 8.5463 17.8886 8.5463 17.8886C8.83376 18.4512 9.12108 18.9937 9.38793 19.5563C10.0244 20.5408 11.1329 21.5656 12.0567 22.2488C12.5495 22.6103 12.9395 23.2333 13.5554 23.4544V23.394H13.5143C13.391 23.2131 13.2064 23.1328 13.0422 22.9922C12.6727 22.6305 12.262 22.1884 11.9746 21.7866C11.1125 20.6613 10.3528 19.4156 9.67538 18.1296C9.34698 17.5068 9.05952 16.8236 8.79267 16.2008C8.66942 15.9595 8.66942 15.598 8.46413 15.4775C8.1562 15.9194 7.70467 16.3012 7.47878 16.8438C7.08894 17.7077 7.04773 18.7726 6.904 19.8777C6.82196 19.8979 6.86292 19.8777 6.82183 19.918C6.16502 19.7571 5.93912 19.0942 5.69275 18.5315C5.07688 17.105 4.97424 14.8143 5.50806 13.1668C5.65179 12.7448 6.26766 11.4187 6.02128 11.0168C5.89816 10.635 5.48746 10.414 5.26169 10.1126C4.99484 9.73081 4.70739 9.24866 4.52271 8.82664C4.02997 7.70148 3.7836 6.4557 3.2499 5.33041C3.00353 4.80792 2.57248 4.26551 2.22346 3.78335C1.8335 3.24082 1.40231 2.859 1.09438 2.216C0.991864 1.99503 0.848006 1.63338 1.01221 1.39224C1.05329 1.23152 1.13533 1.17127 1.29966 1.13106C1.56651 0.909959 2.3261 1.19131 2.59295 1.31182C3.35254 1.61308 3.98888 1.89456 4.62535 2.31647C4.91267 2.51739 5.2206 2.89921 5.59009 2.99968H6.02128C6.67822 3.14023 7.41721 3.03989 8.03307 3.22065C9.1212 3.56213 10.1064 4.06458 10.9893 4.60711C13.6786 6.2748 15.8956 8.64587 17.3943 11.4789C17.6406 11.9409 17.7432 12.3631 17.9691 12.8452C18.4002 13.8298 18.9339 14.8345 19.365 15.7989C19.796 16.7432 20.2066 17.7077 20.8225 18.4914C21.1305 18.9132 22.3621 19.1343 22.9164 19.3554C23.327 19.5362 23.9635 19.697 24.333 19.918C25.0309 20.3397 25.7289 20.8222 26.3858 21.2843C26.7144 21.5253 27.7407 22.0277 27.8024 22.4295L27.8024 22.4295Z" fill="#00546B"/>
</svg>
