<svg width="50" height="29" viewBox="0 0 50 29" fill="none" xmlns="http://www.w3.org/2000/svg">
<path d="M25 29C38.8071 29 50 22.5081 50 14.5C50 6.49187 38.8071 0 25 0C11.1929 0 0 6.49187 0 14.5C0 22.5081 11.1929 29 25 29Z" fill="url(#paint0_radial)"/>
<path d="M25 27.8847C38.2548 27.8847 49 21.8922 49 14.5001C49 7.10798 38.2548 1.11548 25 1.11548C11.7452 1.11548 1 7.10798 1 14.5001C1 21.8922 11.7452 27.8847 25 27.8847Z" fill="#6181B6"/>
<path d="M29.8633 19.0618L31.0547 12.2214C31.3281 10.6747 31.0938 9.52008 30.3907 8.80118C29.7071 8.10406 28.5352 7.7555 26.8164 7.7555H24.7461L25.3321 4.35706C25.3516 4.22636 25.3321 4.09565 25.2539 3.98672C25.1758 3.8778 25.0781 3.83423 24.961 3.83423H22.1094C21.9141 3.83423 21.7578 3.98672 21.7188 4.18279L20.4492 11.4371C20.3321 10.6093 20.0586 9.9122 19.5899 9.3458C18.75 8.27834 17.4414 7.73372 15.6641 7.73372H10.1758C9.98049 7.73372 9.82424 7.88621 9.78518 8.08227L7.22659 22.8088C7.20706 22.9395 7.22659 23.0703 7.30471 23.1792C7.38284 23.2881 7.48049 23.3317 7.59768 23.3317H10.4688C10.6641 23.3317 10.8203 23.1792 10.8594 22.9831L11.4844 19.4322H13.6133C14.7266 19.4322 15.6836 19.3015 16.4063 19.0401C17.168 18.7569 17.8516 18.2994 18.4571 17.6676C18.9453 17.1666 19.3555 16.6002 19.668 15.9902L19.1602 18.9311C19.1406 19.0618 19.1602 19.1926 19.2383 19.3015C19.3164 19.4104 19.4141 19.454 19.5313 19.454H22.3828C22.5781 19.454 22.7344 19.3015 22.7735 19.1054L24.1797 11.045H26.1328C26.9727 11.045 27.2071 11.2193 27.2852 11.3064C27.3438 11.3718 27.461 11.6332 27.3242 12.4392L26.1914 18.9529C26.1719 19.0836 26.1914 19.2143 26.2696 19.3233C26.3477 19.4322 26.4453 19.4758 26.5625 19.4758H29.4922C29.668 19.4104 29.8242 19.2579 29.8633 19.0618ZM16.6602 13.3978C16.4844 14.4217 16.1524 15.1624 15.6641 15.5763C15.1758 15.9902 14.375 16.208 13.3203 16.208H12.0508L12.9688 10.9361H14.6094C15.8203 10.9361 16.3086 11.2193 16.5039 11.4589C16.7578 11.8075 16.8164 12.4828 16.6602 13.3978Z" fill="white"/>
<path d="M42.0508 9.34572C41.211 8.27826 39.9024 7.73364 38.125 7.73364H32.5977C32.4024 7.73364 32.2461 7.88614 32.2071 8.0822L29.6485 22.787C29.6289 22.9177 29.6485 23.0484 29.7266 23.1573C29.8047 23.2662 29.9024 23.3098 30.0196 23.3098H32.8906C33.086 23.3098 33.2422 23.1573 33.2813 22.9613L33.9063 19.4103H36.0352C37.1485 19.4103 38.1055 19.2796 38.8282 19.0182C39.5899 18.735 40.2735 18.2775 40.8789 17.6458C41.3867 17.1229 41.8164 16.5347 42.1289 15.903C42.4414 15.2712 42.6758 14.5741 42.8125 13.8116C43.1446 11.9163 42.8907 10.435 42.0508 9.34572ZM39.0625 13.3977C38.8867 14.4216 38.5547 15.1623 38.0664 15.5762C37.5781 15.9901 36.7774 16.208 35.7227 16.208H34.4531L35.3711 10.936H37.0117C38.2227 10.936 38.711 11.2192 38.9063 11.4589C39.1797 11.8074 39.2383 12.4827 39.0625 13.3977Z" fill="white"/>
<path d="M14.6094 10.5004C15.7031 10.5004 16.4258 10.7183 16.7969 11.1757C17.168 11.6332 17.2461 12.3957 17.0508 13.4849C16.8555 14.6178 16.4648 15.4456 15.8984 15.9248C15.332 16.4041 14.4727 16.6437 13.3203 16.6437H11.582L12.6563 10.5004H14.6094ZM7.61719 22.8742H10.4883L11.1719 18.9747H13.6328C14.7266 18.9747 15.6055 18.844 16.3086 18.5826C17.0117 18.3212 17.6367 17.9073 18.2227 17.2973C18.7109 16.7962 19.1016 16.2516 19.3945 15.6634C19.6875 15.0752 19.9023 14.4217 20.0195 13.7028C20.332 11.96 20.0977 10.6093 19.3359 9.62902C18.5742 8.6487 17.3633 8.16943 15.7031 8.16943H10.1758L7.61719 22.8742Z" fill="#000004"/>
<path d="M22.1289 4.26978H24.9805L24.2969 8.16926H26.8359C28.4375 8.16926 29.5313 8.47425 30.1367 9.10601C30.7422 9.73777 30.918 10.7399 30.6836 12.1341L29.4922 18.9746H26.6016L27.7344 12.4609C27.8711 11.7202 27.8125 11.2191 27.5977 10.9577C27.3828 10.6963 26.8945 10.5438 26.1719 10.5438H23.8867L22.4219 18.9746H19.5703L22.1289 4.26978Z" fill="#000004"/>
<path d="M37.0117 10.5004C38.1055 10.5004 38.8281 10.7183 39.1992 11.1757C39.5703 11.6332 39.6484 12.3957 39.4531 13.4849C39.2578 14.6178 38.8672 15.4456 38.3008 15.9248C37.7344 16.4041 36.875 16.6437 35.7227 16.6437H33.9844L35.0586 10.5004H37.0117ZM30.0195 22.8742H32.8906L33.5742 18.9747H36.0352C37.1289 18.9747 38.0078 18.844 38.7109 18.5826C39.4141 18.3212 40.0391 17.9073 40.625 17.2973C41.1133 16.7962 41.5039 16.2516 41.7969 15.6634C42.0898 15.0752 42.3047 14.4217 42.4219 13.7028C42.7344 11.96 42.5 10.6093 41.7383 9.62902C40.9766 8.6487 39.7656 8.16943 38.1055 8.16943H32.5781L30.0195 22.8742Z" fill="#000004"/>
<defs>
<radialGradient id="paint0_radial" cx="0" cy="0" r="1" gradientUnits="userSpaceOnUse" gradientTransform="translate(15.0101 5.09924) scale(32.8311 36.2167)">
<stop stop-color="white"/>
<stop offset="0.5" stop-color="#4C6B97"/>
<stop offset="1" stop-color="#231F20"/>
</radialGradient>
</defs>
</svg>
