<svg width="39" height="29" viewBox="0 0 39 29" fill="none" xmlns="http://www.w3.org/2000/svg">
<path d="M33.2977 16.671C31.9487 16.678 30.7762 17.0029 29.7945 17.4832C29.4341 16.7698 29.0739 16.1342 29.0105 15.668C28.9397 15.1242 28.8551 14.7922 28.9397 14.1423C29.0246 13.4925 29.406 12.5672 29.3989 12.4966C29.3919 12.426 29.314 12.094 28.5371 12.087C27.7602 12.0799 27.0892 12.2353 27.0115 12.4401C26.9338 12.6449 26.7855 13.1111 26.6866 13.5913C26.5524 14.2978 25.1328 16.8192 24.3206 18.14C24.0592 17.6245 23.8332 17.1724 23.7836 16.8122C23.713 16.2684 23.6282 15.9364 23.713 15.2866C23.7979 14.6368 24.1793 13.7116 24.1722 13.6408C24.165 13.5702 24.0873 13.2382 23.3104 13.2312C22.5334 13.2241 21.8624 13.3795 21.7848 13.5843C21.7071 13.7893 21.6223 14.2694 21.4599 14.7357C21.2974 15.2019 19.4115 19.4116 18.9171 20.4992C18.7173 20.9394 18.5077 21.3751 18.2885 21.8059C18.2885 21.8059 18.2814 21.8271 18.2602 21.8624C18.1913 21.9975 18.1207 22.1317 18.0484 22.265V22.272C17.9424 22.4629 17.8294 22.6393 17.7729 22.6393C17.7305 22.6393 17.6528 22.1308 17.787 21.4386C18.0695 19.9766 18.7405 17.7022 18.7335 17.6245C18.7335 17.5821 18.8606 17.1866 18.2956 16.9817C17.7446 16.7769 17.5469 17.1159 17.4974 17.1159C17.448 17.1159 17.4125 17.236 17.4125 17.236C17.4125 17.236 18.0272 14.6792 16.2402 14.6792C15.1243 14.6792 13.5844 15.9011 12.8216 17.0029C11.9544 17.4748 11.088 17.948 10.2223 18.4226C9.80576 18.6558 9.37482 18.8889 8.97221 19.1078C8.94389 19.0796 8.91571 19.0441 8.88739 19.016C6.72603 16.7063 2.72837 15.0747 2.89787 11.974C2.96149 10.8439 3.34986 7.8773 10.5755 4.27514C16.5226 1.34385 21.2551 2.15604 22.0744 3.9572C23.2468 6.52829 19.5388 11.303 13.3937 11.9951C11.0487 12.2565 9.8197 11.3524 9.50903 11.0134C9.18412 10.6602 9.13459 10.6389 9.01447 10.7097C8.8168 10.8157 8.94389 11.1335 9.01447 11.3171C9.19821 11.7973 9.9539 12.6449 11.2323 13.0617C12.3625 13.4289 15.11 13.6339 18.4368 12.3483C22.1591 10.9074 25.0692 6.90258 24.2146 3.54762C23.3598 0.143127 17.7093 -0.979889 12.3625 0.920028C9.18412 2.05031 5.73722 3.83011 3.25807 6.14688C0.312692 8.9014 -0.153539 11.2959 0.0371644 12.2989C0.722425 15.8587 5.63134 18.1754 7.59487 19.8918C7.49596 19.9483 7.40402 19.9978 7.32646 20.0402C6.34462 20.5275 2.60114 22.4839 1.66882 24.5535C0.609427 26.8984 1.83847 28.5796 2.65067 28.8055C5.17223 29.5048 7.76437 28.2476 9.1558 26.1709C10.5472 24.0944 10.3777 21.3962 9.73503 20.1602C9.72791 20.1461 9.72094 20.1319 9.7067 20.1178C9.96102 19.9695 10.2223 19.8141 10.4766 19.6658C10.9441 19.3895 11.4174 19.1233 11.8964 18.8675C11.6561 19.5245 11.4795 20.3085 11.3949 21.4386C11.2888 22.7666 11.8326 24.4899 12.546 25.1679C12.864 25.4647 13.2383 25.4717 13.4785 25.4717C14.3119 25.4717 14.6864 24.7795 15.1031 23.9602C15.6115 22.9573 16.0707 21.7918 16.0707 21.7918C16.0707 21.7918 15.4985 24.942 17.0525 24.942C17.6175 24.942 18.1896 24.2074 18.4439 23.8331V23.8401C18.4439 23.8401 18.458 23.8188 18.4863 23.7695C18.5428 23.6777 18.5781 23.621 18.5781 23.621V23.6071C18.8041 23.2114 19.3128 22.3144 20.0685 20.8241C21.0432 18.903 21.9826 16.5015 21.9826 16.5015C21.9826 16.5015 22.0674 17.0877 22.3569 18.0624C22.5266 18.6346 22.8795 19.2632 23.1621 19.8706C22.9361 20.1885 22.7948 20.365 22.7948 20.365L22.8019 20.3721C22.6182 20.6122 22.4205 20.8735 22.2015 21.1279C21.4316 22.046 20.5135 23.0986 20.3863 23.4021C20.2378 23.7623 20.2733 24.0238 20.5559 24.2357C20.7607 24.3911 21.1279 24.4122 21.5023 24.3911C22.1945 24.3416 22.6818 24.1721 22.9219 24.0662C23.2963 23.932 23.7342 23.7271 24.1438 23.4234C24.8997 22.8653 25.3586 22.0672 25.3164 21.0149C25.2952 20.4357 25.1045 19.8565 24.8713 19.3125C24.9421 19.2138 25.0056 19.1149 25.0763 19.016C26.2699 17.2713 27.1952 15.3572 27.1952 15.3572C27.1952 15.3572 27.2801 15.9434 27.5695 16.9182C27.7108 17.4126 28.0005 17.9494 28.2546 18.472C27.1316 19.3833 26.4394 20.4427 26.1922 21.1349C25.7473 22.4205 26.0933 22.9995 26.7502 23.1337C27.0468 23.1974 27.4706 23.056 27.7814 22.9218C28.1769 22.7947 28.6432 22.5759 29.0882 22.2508C29.844 21.6929 30.5714 20.9159 30.529 19.8636C30.5078 19.3833 30.3807 18.9099 30.2041 18.4508C31.1576 18.0555 32.3866 17.8365 33.9545 18.02C37.3168 18.4155 37.9807 20.5133 37.8534 21.3964C37.7263 22.2791 37.02 22.7595 36.7871 22.9077C36.5538 23.0562 36.4762 23.1056 36.4974 23.2114C36.5256 23.3669 36.6386 23.3599 36.8364 23.3316C37.112 23.2822 38.6023 22.6181 38.6658 20.9936C38.7718 18.9171 36.794 16.6498 33.2977 16.671V16.671ZM7.36176 25.4152C6.24571 26.63 4.69191 27.0891 4.02089 26.7008C3.30048 26.2839 3.58298 24.4899 4.9532 23.2045C5.7866 22.4205 6.86023 21.6928 7.57367 21.2479C7.73605 21.149 7.97628 21.0078 8.2659 20.8312C8.31528 20.8029 8.3436 20.7888 8.3436 20.7888L8.5131 20.6828C9.01447 22.5192 8.5343 24.1368 7.36176 25.4152V25.4152ZM15.4845 19.8918C15.0959 20.8383 14.2837 23.261 13.7893 23.1268C13.3655 23.0138 13.1041 21.1773 13.7045 19.3621C14.0082 18.4508 14.6509 17.3631 15.0253 16.9394C15.6327 16.2613 16.3038 16.0351 16.4662 16.3108C16.6711 16.671 15.7245 19.2985 15.4845 19.8918V19.8918ZM22.1874 23.0984C22.0249 23.1833 21.8696 23.2398 21.7989 23.1974C21.7495 23.169 21.8696 23.056 21.8696 23.056C21.8696 23.056 22.7101 22.152 23.042 21.7423C23.2329 21.5022 23.4587 21.2197 23.699 20.9018V20.9936C23.699 22.0743 22.6535 22.8019 22.1873 23.0984H22.1874ZM27.3576 21.9189C27.2375 21.8341 27.2587 21.5516 27.6613 20.6687C27.8167 20.3226 28.1839 19.7435 28.8127 19.1855C28.8832 19.4115 28.9328 19.6305 28.9257 19.8353C28.9185 21.1985 27.944 21.707 27.3576 21.9189Z" fill="#CD6799"/>
</svg>
