<svg width="29" height="29" viewBox="0 0 29 29" fill="none" xmlns="http://www.w3.org/2000/svg">
<path d="M29 14.5C29 6.496 22.504 0 14.5 0C6.496 0 0 6.496 0 14.5C0 22.504 6.496 29 14.5 29C22.504 29 29 22.504 29 14.5ZM14.5 1.4645C21.7065 1.4645 27.5355 7.2935 27.5355 14.5C27.5355 21.7065 21.7065 27.5355 14.5 27.5355C7.2935 27.5355 1.4645 21.7065 1.4645 14.5C1.4645 7.2935 7.2935 1.4645 14.5 1.4645ZM11.6145 21.489L7.192 9.5845C7.9025 9.541 8.7145 9.4685 8.7145 9.4685C9.338 9.396 9.2655 8.004 8.6275 8.033C8.6275 8.033 6.757 8.178 5.539 8.178C5.3215 8.178 5.0605 8.178 4.785 8.1635C6.873 5.017 10.44 2.9435 14.5 2.9435C17.5305 2.9435 20.2855 4.089 22.3445 5.974C21.4745 5.858 20.242 6.4815 20.242 8.033C20.242 8.99 20.793 9.802 21.3875 10.759C21.837 11.542 22.1125 12.528 22.1125 13.9635C22.1125 15.9065 20.271 20.4595 20.271 20.4595L16.3415 9.5845C17.0375 9.541 17.429 9.3525 17.429 9.3525C18.0525 9.28 17.98 7.7575 17.3565 7.7865C17.3565 7.7865 15.4715 7.946 14.2535 7.946C13.1225 7.946 11.194 7.7865 11.194 7.7865C10.5705 7.7575 10.498 9.3235 11.1215 9.3525L12.3395 9.4685L13.9635 13.8765L11.6145 21.489ZM20.3435 24.6065L24.128 14.5C24.128 14.5 25.0995 12.0495 24.6935 8.9755C25.607 10.6285 26.0565 12.4845 26.0565 14.5C26.0565 18.792 23.7945 22.591 20.3435 24.6065ZM3.886 9.8165L9.425 25.0125C5.5535 23.1275 2.9435 19.0965 2.9435 14.5C2.9435 12.818 3.2335 11.2665 3.886 9.8165ZM14.6885 16.385L18.009 25.4475C16.9215 25.839 15.7325 26.0565 14.5 26.0565C13.456 26.0565 12.4555 25.897 11.513 25.6215L14.6885 16.385Z" fill="black"/>
</svg>
