<svg width="29" height="29" viewBox="0 0 29 29" fill="none" xmlns="http://www.w3.org/2000/svg">
<path d="M23.8644 4.02901e-06H5.13556C4.46092 -0.000852344 3.79273 0.134817 3.16928 0.399243C2.54583 0.663668 1.97936 1.05165 1.50231 1.54098C1.02527 2.03031 0.647015 2.61136 0.389225 3.25085C0.131434 3.89035 -0.000830957 4.57573 3.92791e-06 5.26774V23.7323C-0.000830957 24.4243 0.131434 25.1096 0.389225 25.7491C0.647015 26.3886 1.02527 26.9697 1.50231 27.459C1.97936 27.9483 2.54583 28.3363 3.16928 28.6008C3.79273 28.8652 4.46092 29.0009 5.13556 29H23.8644C24.5391 29.0009 25.2073 28.8652 25.8307 28.6008C26.4542 28.3363 27.0206 27.9483 27.4977 27.459C27.9747 26.9697 28.353 26.3886 28.6108 25.7491C28.8686 25.1096 29.0008 24.4243 29 23.7323V5.26774C29.0008 4.57573 28.8686 3.89035 28.6108 3.25085C28.353 2.61136 27.9747 2.03031 27.4977 1.54098C27.0206 1.05165 26.4542 0.663668 25.8307 0.399243C25.2073 0.134817 24.5391 -0.000852344 23.8644 4.02901e-06V4.02901e-06ZM27.7775 23.2489C27.7808 23.8399 27.6703 24.4258 27.4522 24.9728C27.234 25.5199 26.9126 26.0173 26.5065 26.4365C26.1003 26.8557 25.6174 27.1884 25.0854 27.4156C24.5535 27.6427 23.983 27.7597 23.4068 27.76H5.59411C4.4316 27.7583 3.31718 27.2838 2.49515 26.4406C1.67313 25.5974 1.21058 24.4543 1.2089 23.2619V5.73716C1.21058 4.54473 1.67313 3.40163 2.49515 2.55845C3.31718 1.71527 4.4316 1.24081 5.59411 1.23909H23.3923C24.5553 1.23934 25.6705 1.71332 26.4928 2.55682C27.3152 3.40032 27.7773 4.54428 27.7775 5.73716V23.2489ZM11.4655 13.5705L14.8503 20.2372C14.9119 20.3385 14.8747 20.4352 14.7787 20.4352H12.6735C12.5421 20.4352 12.4805 20.4017 12.4234 20.2753C11.6504 18.6393 10.8611 17.0033 10.0536 15.2455H10.031C9.28796 16.9381 8.52152 18.6199 7.73189 20.2901C7.67661 20.3868 7.61498 20.4249 7.5153 20.4249H5.52252C5.40018 20.4249 5.39112 20.3236 5.45274 20.2511L8.76135 13.7824L5.56149 7.23745C5.48536 7.13613 5.56149 7.0627 5.63126 7.0627H7.70832C7.83066 7.0627 7.87869 7.0878 7.92582 7.19748C8.69696 8.84645 9.45068 10.5039 10.1868 12.1696H10.2095C10.9127 10.5336 11.6875 8.83441 12.4325 7.21235C12.4941 7.11103 12.5312 7.04783 12.65 7.04783H14.5938C14.6926 7.04783 14.7306 7.12591 14.6699 7.22258L11.4655 13.5705ZM15.4438 15.5894C15.4438 12.7041 17.3134 10.4472 20.2867 10.4472C20.5413 10.4472 20.6736 10.4472 20.9147 10.4723V7.19005C20.9147 7.11196 20.9754 7.06363 21.037 7.06363H22.9437C23.0425 7.06363 23.067 7.10174 23.067 7.1603V18.5426C23.067 18.8763 23.067 19.2974 23.1286 19.7519C23.1286 19.83 23.1041 19.8533 23.0298 19.8932C22.0636 20.3641 21.0075 20.6089 19.9378 20.6099C17.3134 20.6239 15.4438 18.9637 15.4438 15.5894V15.5894ZM20.9156 12.4178C20.6924 12.3303 20.4549 12.2877 20.216 12.2923C18.6926 12.2923 17.6305 13.497 17.6305 15.4928C17.6305 17.7729 18.7153 18.6876 20.0846 18.6876C20.3719 18.6876 20.689 18.6541 20.9156 18.5528V12.4178Z" fill="black"/>
</svg>
