<svg width="60" height="60" viewBox="0 0 60 60" fill="none" xmlns="http://www.w3.org/2000/svg">
<circle cx="30" cy="30" r="27.5" stroke="#B45AD3" stroke-width="5"/>
<path d="M18.361 23.929L29.611 29.9725C29.989 30.175 30.478 30.271 30.97 30.271C31.462 30.271 31.951 30.175 32.329 29.9725L43.579 23.929C44.3125 23.5345 45.0055 22 43.66 22H18.2815C16.936 22 17.629 23.5345 18.361 23.929ZM43.9195 27.2335L32.329 33.274C31.819 33.541 31.462 33.5725 30.97 33.5725C30.478 33.5725 30.121 33.541 29.611 33.274C29.101 33.007 18.9115 27.6655 18.079 27.232C17.494 26.926 17.5 27.2845 17.5 27.5605V38.5C17.5 39.13 18.349 40 19 40H43C43.651 40 44.5 39.13 44.5 38.5V27.562C44.5 27.286 44.506 26.9275 43.9195 27.2335Z" fill="#61597E"/>
<circle cx="49" cy="9" r="8.5" fill="#FFFCFC" stroke="#B45AD3"/>
<path d="M45.215 7.325L44.47 7.065C44.45 7.195 44.395 7.395 44.35 7.525C44.22 7.92 44.05 8.315 43.795 8.715C43.39 8.415 42.865 8.055 42.465 7.81L42.04 8.32C42.55 8.63 43.03 8.985 43.39 9.27C42.895 9.865 42.305 10.35 41.49 10.745L42.05 11.25C42.895 10.79 43.47 10.235 43.91 9.705C44.31 10.05 44.67 10.4 45.02 10.81L45.535 10.24C45.195 9.88 44.775 9.495 44.335 9.135C44.63 8.675 44.855 8.17 45.005 7.775C45.055 7.66 45.15 7.44 45.215 7.325ZM46.46 8.685V9.47C46.645 9.455 46.98 9.445 47.265 9.445H49.95C50.16 9.445 50.415 9.465 50.535 9.47V8.685C50.405 8.695 50.185 8.715 49.95 8.715H47.265C47.005 8.715 46.64 8.7 46.46 8.685ZM53.515 10.89L53.935 11.235C53.98 11.195 54.04 11.145 54.15 11.085C54.71 10.8 55.43 10.26 55.845 9.72L55.46 9.17C55.125 9.655 54.63 10.05 54.225 10.225V7.61C54.225 7.385 54.255 7.19 54.26 7.175H53.515C53.52 7.19 53.555 7.38 53.555 7.605V10.52C53.555 10.655 53.535 10.795 53.515 10.89ZM51.2 10.815L51.81 11.22C52.235 10.84 52.55 10.35 52.7 9.785C52.835 9.28 52.85 8.225 52.85 7.635C52.85 7.425 52.88 7.205 52.885 7.18H52.15C52.18 7.305 52.195 7.44 52.195 7.64C52.195 8.245 52.19 9.19 52.05 9.62C51.91 10.045 51.64 10.505 51.2 10.815Z" fill="#61597E"/>
</svg>
