<svg width="60" height="60" viewBox="0 0 60 60" fill="none" xmlns="http://www.w3.org/2000/svg">
<circle cx="30" cy="30" r="27.5" stroke="#593EA4" stroke-width="5"/>
<path d="M37.15 15H23.85C22.2766 15 21 16.2598 21 17.8125V42.1875C21 43.7402 22.2766 45 23.85 45H37.15C38.7234 45 40 43.7402 40 42.1875V17.8125C40 16.2598 38.7234 15 37.15 15ZM30.5 43.125C29.4491 43.125 28.6 42.2871 28.6 41.25C28.6 40.2129 29.4491 39.375 30.5 39.375C31.5509 39.375 32.4 40.2129 32.4 41.25C32.4 42.2871 31.5509 43.125 30.5 43.125ZM37.15 36.7969C37.15 37.1836 36.8294 37.5 36.4375 37.5H24.5625C24.1706 37.5 23.85 37.1836 23.85 36.7969V18.5156C23.85 18.1289 24.1706 17.8125 24.5625 17.8125H36.4375C36.8294 17.8125 37.15 18.1289 37.15 18.5156V36.7969Z" fill="#61597E"/>
<circle cx="49" cy="9" r="8.5" fill="#FFFCFC" stroke="#593EA4"/>
<path d="M46.792 7.244H46.108V7.01H46.792V7.244ZM46.792 7.904H46.108V7.658H46.792V7.904ZM46.792 8.576H46.108V8.312H46.792V8.576ZM45.052 8.408L44.518 8.558V7.706H45.064V7.52C45.148 7.616 45.232 7.712 45.28 7.778C45.352 7.718 45.424 7.646 45.496 7.574V9.074H48.676V8.576H47.428V8.312H48.448V7.904H47.428V7.658H48.448V7.244H47.428V7.01H48.622V6.518H47.56C47.638 6.38 47.722 6.23 47.806 6.08L47.116 5.924C47.062 6.098 46.978 6.32 46.888 6.518H46.216C46.288 6.368 46.348 6.218 46.402 6.062L45.79 5.912C45.646 6.362 45.382 6.782 45.064 7.1V7.052H44.518V5.924H43.87V7.052H43.24V7.706H43.87V8.738C43.6 8.81 43.348 8.87 43.144 8.918L43.3 9.602C43.48 9.554 43.672 9.5 43.87 9.44V10.766C43.87 10.844 43.84 10.868 43.768 10.868C43.696 10.874 43.486 10.874 43.27 10.862C43.354 11.054 43.432 11.348 43.45 11.522C43.846 11.528 44.098 11.504 44.284 11.39C44.464 11.276 44.518 11.096 44.518 10.766V9.242C44.728 9.182 44.938 9.116 45.142 9.05L45.052 8.408ZM47.68 9.794C47.716 9.632 47.752 9.47 47.782 9.314H45.16V9.878H45.874C45.766 10.46 45.442 10.814 44.824 11.024C44.962 11.144 45.196 11.402 45.274 11.54C46.03 11.222 46.426 10.724 46.582 9.878H47.05C47.002 10.082 46.948 10.28 46.9 10.442L47.506 10.532C47.524 10.46 47.548 10.382 47.566 10.298H48.046C48.004 10.658 47.95 10.838 47.878 10.904C47.83 10.946 47.764 10.958 47.668 10.958C47.548 10.958 47.278 10.952 47.002 10.922C47.11 11.084 47.188 11.324 47.2 11.51C47.494 11.522 47.788 11.522 47.95 11.504C48.142 11.492 48.28 11.444 48.412 11.318C48.568 11.162 48.652 10.802 48.712 10.046C48.73 9.956 48.736 9.794 48.736 9.794H47.68ZM53.908 9.32H52.318V8.846H53.908V9.32ZM49.414 9.584H50.08V8.846H51.622V9.32H50.086V11.126H50.782V9.884H51.622V11.51H52.318V9.884H53.32V10.466C53.32 10.532 53.296 10.55 53.212 10.556C53.14 10.556 52.858 10.556 52.618 10.544C52.708 10.706 52.804 10.952 52.84 11.144C53.224 11.144 53.518 11.138 53.74 11.042C53.962 10.946 54.022 10.784 54.022 10.478V9.584H54.592V8.276H49.414V9.584ZM53.092 7.466H52.324V7.052H53.092V7.466ZM50.89 7.052H51.64V7.466H50.89V7.052ZM53.806 6.476V5.948H53.092V6.476H52.324V5.924H51.64V6.476H50.89V5.948H50.212V6.476H49.306V7.052H50.212V8.012H53.806V7.052H54.706V6.476H53.806Z" fill="#61597E"/>
</svg>
